<svg width="1072" height="403" viewBox="0 0 1072 403" fill="none" xmlns="http://www.w3.org/2000/svg">
<path d="M18.176 291V114.872H62.72V184.504H75.776L123.904 114.872H172.032L111.872 198.584L172.8 291H122.88L75.776 218.296H62.72V291H18.176Z" fill="#0C2D48"/>
<path d="M177.048 291L232.856 114.872H293.528L349.592 291H304.536L294.04 256.44H231.32L221.08 291H177.048ZM240.792 222.904H284.312L263.32 153.272H261.528L240.792 222.904ZM369.926 291V114.872H415.75L473.094 209.336H474.374V114.872H517.126V291H475.398L413.958 187.832H412.678V291H369.926ZM553.426 291V114.872H642.258C653.522 114.872 662.823 116.493 670.162 119.736C677.671 122.979 683.218 127.928 686.802 134.584C690.557 141.069 692.434 149.261 692.434 159.16C692.434 167.352 691.325 174.264 689.106 179.896C686.887 185.528 683.474 190.051 678.866 193.464C674.429 196.707 668.711 199.096 661.714 200.632V201.656C669.223 203.192 675.282 205.581 679.89 208.824C684.669 212.067 688.167 216.589 690.386 222.392C692.605 228.024 693.714 235.277 693.714 244.152C693.714 251.491 692.775 258.061 690.898 263.864C689.191 269.667 686.29 274.616 682.194 278.712C678.269 282.637 672.978 285.709 666.322 287.928C659.837 289.976 651.815 291 642.258 291H553.426ZM597.714 257.72H626.642C632.786 257.72 637.479 257.208 640.722 256.184C643.965 254.989 646.183 252.941 647.378 250.04C648.573 247.139 649.17 243.043 649.17 237.752C649.17 232.291 648.573 228.109 647.378 225.208C646.183 222.307 643.879 220.344 640.466 219.32C637.223 218.125 632.615 217.528 626.642 217.528H597.714V257.72ZM597.714 186.552H625.874C631.677 186.552 636.199 186.04 639.442 185.016C642.685 183.821 644.903 181.859 646.098 179.128C647.463 176.397 648.146 172.557 648.146 167.608C648.146 162.317 647.549 158.307 646.354 155.576C645.33 152.845 643.197 150.968 639.954 149.944C636.882 148.92 632.189 148.408 625.874 148.408H597.714V186.552ZM708.798 291L764.606 114.872H825.278L881.342 291H836.286L825.79 256.44H763.07L752.83 291H708.798ZM772.542 222.904H816.062L795.07 153.272H793.278L772.542 222.904Z" fill="#145DA0"/>
<path d="M1053.82 291V114.872L1008 114.872L950.656 209.336H949.376V114.872L906.624 114.872L906.624 291H948.352L1009.79 187.832H1011.07L1011.07 291H1053.82Z" fill="#0C2D48"/>
<line x1="276" y1="355" x2="754" y2="355" stroke="#0C2D48" stroke-width="30" stroke-linecap="square"/>
</svg>
